<?xml version="1.0" encoding="UTF-8"?>
<svg width="512px" height="505px" viewBox="0 0 512 505" version="1.1" xmlns="http://www.w3.org/2000/svg" xmlns:xlink="http://www.w3.org/1999/xlink">
    <!-- Generator: Sketch 63.1 (92452) - https://sketch.com -->
    <title>Untitled</title>
    <desc>Created with Sketch.</desc>
    <g id="Page-1" stroke="none" stroke-width="1" fill="none" fill-rule="evenodd">
        <g id="coronavirus_tracker_logo" fill-rule="nonzero">
            <g id="XMLID_107_" transform="translate(0.000000, 0.226523)" fill="#EF5350">
                <path d="M473.852456,278.351441 C456.354648,280.105448 440.526318,270.099154 433.214432,254.471583 L412.472768,256.299555 L396.813498,263.854466 C393.23152,265.576774 390.822401,269.000258 390.272953,272.930925 C388.79367,283.528932 386.109828,293.735987 382.379921,303.435858 C381.111964,306.72198 381.333856,310.388489 383.056164,313.452719 L388.635175,323.427314 L404.146517,333.835128 C412.32484,330.707501 421.845084,331.457709 429.674719,336.709164 C442.946002,345.616563 446.126461,363.949108 436.257529,376.850571 C427.762217,387.966328 411.965585,391.019991 399.941126,383.877167 C392.280552,379.333654 387.652509,371.789309 386.521914,363.727216 L369.330529,352.199373 L358.510629,350.878584 C354.791289,350.424233 351.093081,351.702757 348.388105,354.291502 C339.258815,362.987574 328.946097,370.457955 317.735244,376.438485 C313.963072,378.446084 311.543387,382.302787 311.279229,386.561009 L309.905609,408.475533 L316.710312,435.472452 C328.290986,438.705743 337.864062,447.887865 341.012822,460.377242 C345.767661,479.259236 334.039058,498.415953 314.914039,502.674176 C297.659257,506.520312 279.96069,496.461186 274.476776,479.650189 C270.207987,466.526834 274.128088,452.959693 283.151715,444.09456 L276.315314,416.939147 L265.759571,399.969655 C262.9278,395.415576 257.91937,392.721167 252.551685,392.731733 C252.519986,392.731733 252.498854,392.731733 252.467155,392.731733 C243.221635,392.731733 234.176874,391.812465 225.427971,390.090156 C220.21878,389.054658 214.840529,390.703002 211.184586,394.559705 L197.237059,409.278573 L181.620055,441.674876 C185.275997,449.102991 185.603553,458.073787 181.736284,466.114748 C174.783653,480.527193 157.053387,486.254132 142.883967,478.287135 C130.753844,471.450734 125.502389,456.362045 130.785543,443.471148 C134.388654,434.679979 141.859035,428.805111 150.312082,426.839778 L166.024183,394.232149 L169.109545,372.349324 C169.669559,368.312994 168.126878,364.244965 164.956986,361.687918 C152.457042,351.544262 141.742805,339.29791 133.363722,325.477178 C131.28216,322.043128 127.541686,319.961565 123.526489,319.929866 L101.675363,319.71854 L77.7532395,327.241752 C76.0731965,342.119114 65.8872748,355.337567 50.6929228,360.113538 C30.2788143,366.537854 8.53335094,355.316434 1.90827536,335.029121 C-4.71680022,314.752375 6.47292074,292.573693 26.7285346,285.874653 C40.9085209,281.183212 55.8070163,285.08218 65.8872748,294.665822 L91.2781147,286.677692 L109.821987,273.45924 C112.579793,271.504473 114.04851,268.228917 113.773786,264.868831 C113.467363,261.138924 113.308868,257.377318 113.308868,253.573447 C113.308868,232.905747 117.852381,213.284112 125.967306,195.638376 C127.150733,193.049631 127.119034,190.069932 125.87221,187.512885 L120.377729,176.280899 L105.468667,165.02778 C97.1212835,167.701056 87.6644371,166.422533 80.1412253,160.748425 C67.3771244,151.111951 65.2215974,132.631477 75.7879061,120.300595 C84.8854979,109.681455 100.830058,107.504795 112.442431,115.302731 C119.838847,120.268896 124.044238,128.045699 124.720482,136.160624 L141.246189,148.628869 L157.898691,151.598001 C170.018248,140.344883 184.145402,131.226158 199.66731,124.833541 L203.576844,101.080479 L198.642378,76.5455105 C184.039739,72.7839045 172.184341,61.5941836 168.993316,46.6745556 C164.492068,25.5947697 178.978477,5.06443178 201.357919,0.827341975 C223.726795,-3.40974783 245.514524,10.2313568 250.015771,31.3111427 C253.386424,47.0866417 246.127369,62.5451514 232.877218,71.1038614 L237.53696,94.2440776 L248.980273,112.502659 C249.730481,113.696652 251.040703,114.415161 252.446022,114.415161 L252.467155,114.415161 C278.6716,114.415161 303.206569,121.705914 324.15956,134.364352 C325.311287,135.051162 326.727173,135.146259 327.942298,134.575678 L345.862758,126.270559 L366.784049,103.637526 C365.526658,95.522601 367.84068,86.9216256 373.85291,80.4233458 C384.715075,68.6841767 403.311778,68.3883201 414.533198,80.1274891 C424.370432,90.4296401 424.750819,106.86025 415.410202,117.616753 C409.366273,124.57995 400.691334,127.792108 392.217154,127.158129 L371.295863,149.791163 L364.501726,168.070877 C364.026242,169.338834 364.237569,170.754719 365.030042,171.853615 C373.282329,183.180698 379.865139,195.796871 384.408652,209.342879 C385.666043,213.062219 388.624609,215.957388 392.407348,217.024585 L409.419105,221.78999 L431.523823,219.835223 C436.944339,204.207653 450.479781,192.383953 467.100584,190.714476 C489.95551,188.421587 509.999798,206.183552 511.859468,230.380399 C513.729705,254.577247 496.707381,276.058552 473.852456,278.351441 Z" id="Path"></path>
            </g>
            <g id="XMLID_8_" transform="translate(148.984953, 150.268107)" fill="#F58A97">
                <circle id="Oval" cx="103.482201" cy="103.531863" r="103.042643"></circle>
            </g>
            <path d="M180.831808,253.79997 C180.831808,202.228987 218.714138,159.508344 268.170803,151.946037 C263.05037,151.163074 257.80631,150.757327 252.467155,150.757327 C195.557016,150.757327 149.424512,196.889831 149.424512,253.79997 C149.424512,310.710109 195.557016,356.842613 252.467155,356.842613 C257.80631,356.842613 263.05037,356.436867 268.170803,355.653903 C218.715195,348.09054 180.831808,305.369897 180.831808,253.79997 Z" id="Path" fill="#F07281"></path>
            <g id="Group" transform="translate(190.661651, 182.622939)" fill="#EF5350">
                <circle id="Oval" cx="30.176315" cy="42.76" r="26.6154751"></circle>
                <circle id="Oval" cx="67.4542853" cy="130.492997" r="18.1159363"></circle>
                <circle id="Oval" cx="15.338349" cy="112.377061" r="15"></circle>
                <circle id="Oval" cx="93.338349" cy="8.377061" r="8"></circle>
                <circle id="Oval" cx="108.426171" cy="71.177031" r="15.2123147"></circle>
            </g>
        </g>
    </g>
</svg>